{"accessors" : [{"bufferView" : 0, "byteOffset" : 0, "componentType" : 5123, "count" : 1017, "type" : "SCALAR", "max" : [1014], "min" : [0]}, {"bufferView" : 1, "byteOffset" : 0, "componentType" : 5126, "count" : 1015, "type" : "VEC3", "max" : [6.3028950691223145, 9.446020126342773, -0.007846149615943432], "min" : [-6.32375955581665, -8.734199523925781, -11.84469985961914], "name" : "POSITION"}, {"bufferView" : 1, "byteOffset" : 12, "componentType" : 5126, "count" : 1015, "type" : "VEC3", "max" : [0.9954761862754822, 0.9999548196792603, 0.9985164999961853], "min" : [-0.9916513562202454, -0.9993551969528198, -0.9968241453170776], "name" : "NORMAL"}], "asset" : {"generator" : "Aspose.3D 24.1.0", "version" : "2.0"}, "buffers" : [{"uri" : "data:application/octet-stream;base64,", "byteLength" : 26452}], "bufferViews" : [{"buffer" : 0, "byteOffset" : 0, "byteLength" : 2036, "target" : 34963}, {"buffer" : 0, "byteOffset" : 2040, "byteLength" : 24408, "byteStride" : 24, "target" : 34962}], "meshes" : [{"primitives" : [{"attributes" : {"POSITION" : 1, "NORMAL" : 2}, "indices" : 0, "mode" : 4}], "name" : ""}], "nodes" : [{"mesh" : 0, "name" : ""}], "scene" : 0, "scenes" : [{"nodes" : [0]}]}