<svg version="1.1" xmlns="http://www.w3.org/2000/svg" viewBox="0 0 2456.8356453472848 911.2166545500379" width="4913.6712906945695" height="1822.4333091000758" filter="invert(93%) hue-rotate(180deg)">
  <!-- svg-source:excalidraw -->
  
  <defs>
    <style class="style-fonts">
      @font-face {
        font-family: "Virgil";
        src: url("https://excalidraw.com/Virgil.woff2");
      }
      @font-face {
        font-family: "Cascadia";
        src: url("https://excalidraw.com/Cascadia.woff2");
      }
      @font-face {
        font-family: "Assistant";
        src: url("https://excalidraw.com/Assistant-Regular.woff2");
      }
    </style>
    
  </defs>
  <g stroke-linecap="round" transform="translate(1242.6508868050526 57.407404812052505) rotate(0 580.0233638479177 314.5348307247478)"><path d="M32 0 C354.49 0, 676.97 0, 1128.05 0 M32 0 C306.59 0, 581.18 0, 1128.05 0 M1128.05 0 C1149.38 0, 1160.05 10.67, 1160.05 32 M1128.05 0 C1149.38 0, 1160.05 10.67, 1160.05 32 M1160.05 32 C1160.05 194.77, 1160.05 357.53, 1160.05 597.07 M1160.05 32 C1160.05 237.94, 1160.05 443.87, 1160.05 597.07 M1160.05 597.07 C1160.05 618.4, 1149.38 629.07, 1128.05 629.07 M1160.05 597.07 C1160.05 618.4, 1149.38 629.07, 1128.05 629.07 M1128.05 629.07 C810.29 629.07, 492.53 629.07, 32 629.07 M1128.05 629.07 C881.38 629.07, 634.71 629.07, 32 629.07 M32 629.07 C10.67 629.07, 0 618.4, 0 597.07 M32 629.07 C10.67 629.07, 0 618.4, 0 597.07 M0 597.07 C0 394.82, 0 192.57, 0 32 M0 597.07 C0 387.65, 0 178.24, 0 32 M0 32 C0 10.67, 10.67 0, 32 0 M0 32 C0 10.67, 10.67 0, 32 0" stroke="#1971c2" stroke-width="4" fill="none"></path></g><g stroke-linecap="round" transform="translate(479.4312838661117 10) rotate(0 983.7021807405865 392.8951994154231)"><path d="M32 0 C432.62 0, 833.24 0, 1935.4 0 M32 0 C566.84 0, 1101.68 0, 1935.4 0 M1935.4 0 C1956.74 0, 1967.4 10.67, 1967.4 32 M1935.4 0 C1956.74 0, 1967.4 10.67, 1967.4 32 M1967.4 32 C1967.4 309.92, 1967.4 587.84, 1967.4 753.79 M1967.4 32 C1967.4 197.67, 1967.4 363.35, 1967.4 753.79 M1967.4 753.79 C1967.4 775.12, 1956.74 785.79, 1935.4 785.79 M1967.4 753.79 C1967.4 775.12, 1956.74 785.79, 1935.4 785.79 M1935.4 785.79 C1199.57 785.79, 463.74 785.79, 32 785.79 M1935.4 785.79 C1223.25 785.79, 511.09 785.79, 32 785.79 M32 785.79 C10.67 785.79, 0 775.12, 0 753.79 M32 785.79 C10.67 785.79, 0 775.12, 0 753.79 M0 753.79 C0 598.54, 0 443.3, 0 32 M0 753.79 C0 597.97, 0 442.15, 0 32 M0 32 C0 10.67, 10.67 0, 32 0 M0 32 C0 10.67, 10.67 0, 32 0" stroke="#e03131" stroke-width="4" fill="none"></path></g><g stroke-linecap="round" transform="translate(10 486.8542610958539) rotate(0 185.12059849178274 117.97101259328554)"><path d="M370.24 117.97 C370.24 121.06, 370.05 124.15, 369.67 127.23 C369.29 130.3, 368.72 133.38, 367.96 136.43 C367.2 139.47, 366.26 142.51, 365.13 145.51 C364 148.51, 362.68 151.49, 361.18 154.43 C359.68 157.36, 358 160.27, 356.15 163.12 C354.3 165.97, 352.26 168.78, 350.06 171.53 C347.87 174.28, 345.49 176.98, 342.96 179.61 C340.43 182.24, 337.73 184.82, 334.89 187.31 C332.04 189.81, 329.03 192.24, 325.89 194.59 C322.74 196.93, 319.44 199.21, 316.02 201.39 C312.6 203.57, 309.03 205.67, 305.35 207.68 C301.67 209.68, 297.85 211.6, 293.93 213.41 C290.01 215.23, 285.97 216.95, 281.85 218.56 C277.72 220.17, 273.48 221.68, 269.16 223.08 C264.85 224.48, 260.44 225.78, 255.96 226.96 C251.49 228.14, 246.93 229.21, 242.33 230.17 C237.72 231.12, 233.04 231.96, 228.34 232.68 C223.63 233.4, 218.86 234.01, 214.08 234.49 C209.3 234.97, 204.47 235.34, 199.64 235.58 C194.82 235.82, 189.96 235.94, 185.12 235.94 C180.28 235.94, 175.42 235.82, 170.6 235.58 C165.77 235.34, 160.94 234.97, 156.16 234.49 C151.38 234.01, 146.61 233.4, 141.91 232.68 C137.2 231.96, 132.52 231.12, 127.92 230.17 C123.31 229.21, 118.75 228.14, 114.28 226.96 C109.81 225.78, 105.39 224.48, 101.08 223.08 C96.76 221.68, 92.52 220.17, 88.4 218.56 C84.27 216.95, 80.23 215.23, 76.31 213.41 C72.39 211.6, 68.58 209.68, 64.89 207.68 C61.21 205.67, 57.64 203.57, 54.22 201.39 C50.8 199.21, 47.5 196.93, 44.35 194.59 C41.21 192.24, 38.2 189.81, 35.35 187.31 C32.51 184.82, 29.81 182.24, 27.28 179.61 C24.75 176.98, 22.37 174.28, 20.18 171.53 C17.98 168.78, 15.94 165.97, 14.09 163.12 C12.24 160.27, 10.56 157.36, 9.06 154.43 C7.56 151.49, 6.25 148.51, 5.11 145.51 C3.98 142.51, 3.04 139.47, 2.28 136.43 C1.52 133.38, 0.95 130.3, 0.57 127.23 C0.19 124.15, 0 121.06, 0 117.97 C0 114.89, 0.19 111.79, 0.57 108.72 C0.95 105.64, 1.52 102.56, 2.28 99.52 C3.04 96.47, 3.98 93.43, 5.11 90.43 C6.25 87.43, 7.56 84.45, 9.06 81.52 C10.56 78.58, 12.24 75.68, 14.09 72.83 C15.94 69.98, 17.98 67.16, 20.18 64.41 C22.37 61.66, 24.75 58.96, 27.28 56.33 C29.81 53.7, 32.51 51.13, 35.35 48.63 C38.2 46.13, 41.21 43.7, 44.35 41.35 C47.5 39.01, 50.8 36.73, 54.22 34.55 C57.64 32.37, 61.21 30.27, 64.89 28.27 C68.58 26.26, 72.39 24.34, 76.31 22.53 C80.23 20.72, 84.27 19, 88.4 17.38 C92.52 15.77, 96.76 14.26, 101.08 12.86 C105.39 11.46, 109.81 10.16, 114.28 8.98 C118.75 7.8, 123.31 6.73, 127.92 5.77 C132.52 4.82, 137.2 3.98, 141.91 3.26 C146.61 2.54, 151.38 1.94, 156.16 1.45 C160.94 0.97, 165.77 0.61, 170.6 0.36 C175.42 0.12, 180.28 0, 185.12 0 C189.96 0, 194.82 0.12, 199.64 0.36 C204.47 0.61, 209.3 0.97, 214.08 1.45 C218.86 1.94, 223.63 2.54, 228.34 3.26 C233.04 3.98, 237.72 4.82, 242.33 5.77 C246.93 6.73, 251.49 7.8, 255.96 8.98 C260.44 10.16, 264.85 11.46, 269.16 12.86 C273.48 14.26, 277.72 15.77, 281.85 17.38 C285.97 19, 290.01 20.72, 293.93 22.53 C297.85 24.34, 301.67 26.26, 305.35 28.27 C309.03 30.27, 312.6 32.37, 316.02 34.55 C319.44 36.73, 322.74 39.01, 325.89 41.35 C329.03 43.7, 332.04 46.13, 334.89 48.63 C337.73 51.13, 340.43 53.7, 342.96 56.33 C345.49 58.96, 347.87 61.66, 350.06 64.41 C352.26 67.16, 354.3 69.98, 356.15 72.83 C358 75.68, 359.68 78.58, 361.18 81.52 C362.68 84.45, 364 87.43, 365.13 90.43 C366.26 93.43, 367.2 96.47, 367.96 99.52 C368.72 102.56, 369.29 105.64, 369.67 108.72 C370.05 111.79, 370.24 114.89, 370.24 117.97" stroke="#2f9e44" stroke-width="4" fill="none"></path></g><g transform="translate(117.37056948680993 582.4071707009837) rotate(0 77.8499984741211 22.5)"><text x="77.8499984741211" y="31.536" font-family="Virgil, Segoe UI Emoji" font-size="36px" fill="#2f9e44" text-anchor="middle" style="white-space: pre;" direction="ltr" dominant-baseline="alphabetic">클라이언트</text></g><g stroke-linecap="round" transform="translate(531.6306435718961 113.31752689886207) rotate(0 244.61669901918748 135.17309922006507)"><path d="M306.25 34 C335.85 50.54, 365.46 67.07, 427.98 102 M306.25 34 C339.6 52.63, 372.95 71.26, 427.98 102 M427.98 102 C489.23 136, 489.23 136, 427.98 170 M427.98 102 C489.23 136, 489.23 136, 427.98 170 M427.98 170 C402.65 183.81, 377.32 197.61, 306.25 236.35 M427.98 170 C384.76 193.56, 341.54 217.11, 306.25 236.35 M306.25 236.35 C245 270.35, 245 270.35, 183.75 236.35 M306.25 236.35 C245 270.35, 245 270.35, 183.75 236.35 M183.75 236.35 C154.47 220.49, 125.2 204.63, 61.25 170 M183.75 236.35 C135.76 210.35, 87.77 184.36, 61.25 170 M61.25 170 C0 136, 0 136, 61.25 102 M61.25 170 C0 136, 0 136, 61.25 102 M61.25 102 C101.29 79.78, 141.32 57.55, 183.75 34 M61.25 102 C97.89 81.66, 134.54 61.32, 183.75 34 M183.75 34 C245 0, 245 0, 306.25 34 M183.75 34 C245 0, 245 0, 306.25 34" stroke="#2f9e44" stroke-width="4" fill="none"></path></g><g transform="translate(667.4489952177205 203.4040765088946) rotate(0 108.98999786376953 45)"><text x="108.98999786376953" y="31.536" font-family="Virgil, Segoe UI Emoji" font-size="36px" fill="#2f9e44" text-anchor="middle" style="white-space: pre;" direction="ltr" dominant-baseline="alphabetic">클라우드플레어</text><text x="108.98999786376953" y="76.536" font-family="Virgil, Segoe UI Emoji" font-size="36px" fill="#2f9e44" text-anchor="middle" style="white-space: pre;" direction="ltr" dominant-baseline="alphabetic">프록시 서버</text></g><g stroke-linecap="round" transform="translate(1285.215886539778 98.17546561258644) rotate(0 228.6337927845004 131.76924119282518)"><path d="M286.25 33 C325.86 55.98, 365.48 78.96, 400.02 99 M286.25 33 C311.44 47.61, 336.63 62.23, 400.02 99 M400.02 99 C457.27 132, 457.27 132, 400.02 165 M400.02 99 C457.27 132, 457.27 132, 400.02 165 M400.02 165 C364.25 185.6, 328.48 206.21, 286.25 230.54 M400.02 165 C368.81 182.98, 337.6 200.96, 286.25 230.54 M286.25 230.54 C229 263.54, 229 263.54, 171.75 230.54 M286.25 230.54 C229 263.54, 229 263.54, 171.75 230.54 M171.75 230.54 C145.17 215.32, 118.59 200.11, 57.25 165 M171.75 230.54 C132.16 207.88, 92.56 185.21, 57.25 165 M57.25 165 C0 132, 0 132, 57.25 99 M57.25 165 C0 132, 0 132, 57.25 99 M57.25 99 C95.12 77.17, 132.99 55.34, 171.75 33 M57.25 99 C96.04 76.64, 134.83 54.28, 171.75 33 M171.75 33 C229 0, 229 0, 286.25 33 M171.75 33 C229 0, 229 0, 286.25 33" stroke="#2f9e44" stroke-width="4" fill="none"></path></g><g transform="translate(1448.5128091771453 207.5600862089991) rotate(0 65.51997375488281 22.5)"><text x="65.51997375488281" y="31.536" font-family="Virgil, Segoe UI Emoji" font-size="36px" fill="#2f9e44" text-anchor="middle" style="white-space: pre;" direction="ltr" dominant-baseline="alphabetic">Traefik</text></g><g stroke-linecap="round"><g transform="translate(342.80651636417815 511.08732891504906) rotate(0 152.2634640161034 -90.13294642723201)"><path d="M0 0 C50.75 -30.04, 253.77 -150.22, 304.53 -180.27 M0 0 C50.75 -30.04, 253.77 -150.22, 304.53 -180.27" stroke="#2f9e44" stroke-width="4" fill="none"></path></g><g transform="translate(342.80651636417815 511.08732891504906) rotate(0 152.2634640161034 -90.13294642723201)"><path d="M288.67 -160.94 C293.77 -167.16, 298.88 -173.39, 304.53 -180.27 M288.67 -160.94 C294.73 -168.33, 300.8 -175.72, 304.53 -180.27" stroke="#2f9e44" stroke-width="4" fill="none"></path></g><g transform="translate(342.80651636417815 511.08732891504906) rotate(0 152.2634640161034 -90.13294642723201)"><path d="M279.96 -175.66 C287.87 -177.14, 295.78 -178.63, 304.53 -180.27 M279.96 -175.66 C289.35 -177.42, 298.75 -179.18, 304.53 -180.27" stroke="#2f9e44" stroke-width="4" fill="none"></path></g></g><mask></mask><g stroke-linecap="round"><g transform="translate(1027.1842564970102 249.28353903228594) rotate(0 126.18755523450875 -0.26668264595650726)"><path d="M0 0 C42.06 -0.09, 210.31 -0.44, 252.38 -0.53 M0 0 C42.06 -0.09, 210.31 -0.44, 252.38 -0.53" stroke="#2f9e44" stroke-width="4" fill="none"></path></g><g transform="translate(1027.1842564970102 249.28353903228594) rotate(0 126.18755523450875 -0.26668264595650726)"><path d="M228.9 8.07 C234.63 5.97, 240.36 3.87, 252.38 -0.53 M228.9 8.07 C236.42 5.31, 243.93 2.56, 252.38 -0.53" stroke="#2f9e44" stroke-width="4" fill="none"></path></g><g transform="translate(1027.1842564970102 249.28353903228594) rotate(0 126.18755523450875 -0.26668264595650726)"><path d="M228.86 -9.03 C234.6 -6.96, 240.34 -4.88, 252.38 -0.53 M228.86 -9.03 C236.39 -6.31, 243.92 -3.59, 252.38 -0.53" stroke="#2f9e44" stroke-width="4" fill="none"></path></g></g><mask></mask><g stroke-linecap="round"><g transform="translate(1635.9700395952864 312.8310682443182) rotate(0 144.7580689521501 83.66878766618197)"><path d="M0 0 C48.25 27.89, 241.26 139.45, 289.52 167.34 M0 0 C48.25 27.89, 241.26 139.45, 289.52 167.34" stroke="#2f9e44" stroke-width="4" fill="none"></path></g><g transform="translate(1635.9700395952864 312.8310682443182) rotate(0 144.7580689521501 83.66878766618197)"><path d="M264.9 162.98 C270.96 164.06, 277.01 165.13, 289.52 167.34 M264.9 162.98 C272.24 164.28, 279.57 165.58, 289.52 167.34" stroke="#2f9e44" stroke-width="4" fill="none"></path></g><g transform="translate(1635.9700395952864 312.8310682443182) rotate(0 144.7580689521501 83.66878766618197)"><path d="M273.46 148.18 C277.41 152.89, 281.36 157.61, 289.52 167.34 M273.46 148.18 C278.24 153.89, 283.03 159.6, 289.52 167.34" stroke="#2f9e44" stroke-width="4" fill="none"></path></g></g><mask></mask><g transform="translate(73.05972743083885 742.8242937481293) rotate(0 110.7359619140625 22.5)"><text x="0" y="31.536" font-family="Virgil, Segoe UI Emoji" font-size="36px" fill="#2f9e44" text-anchor="start" style="white-space: pre;" direction="ltr" dominant-baseline="alphabetic">211.104.53.76</text></g><g transform="translate(655.0808357423693 404.8636575935691) rotate(0 122.36395263671875 22.5)"><text x="0" y="31.536" font-family="Virgil, Segoe UI Emoji" font-size="36px" fill="#2f9e44" text-anchor="start" style="white-space: pre;" direction="ltr" dominant-baseline="alphabetic">162.158.5.203</text></g><g transform="translate(1344.4904219256596 383.48762565338507) rotate(0 167.11195373535156 22.5)"><text x="0" y="31.536" font-family="Virgil, Segoe UI Emoji" font-size="36px" fill="#2f9e44" text-anchor="start" style="white-space: pre;" direction="ltr" dominant-baseline="alphabetic">172.26.0.2 (내부IP)</text></g><g transform="translate(1813.8275206840144 723.0776920132232) rotate(0 46.709999084472656 22.5)"><text x="0" y="31.536" font-family="Virgil, Segoe UI Emoji" font-size="36px" fill="#1971c2" text-anchor="start" style="white-space: pre;" direction="ltr" dominant-baseline="alphabetic">내부망</text></g><g transform="translate(1346.4264356435287 856.2166545500379) rotate(0 71.27999877929688 22.5)"><text x="0" y="31.536" font-family="Virgil, Segoe UI Emoji" font-size="36px" fill="#e03131" text-anchor="start" style="white-space: pre;" direction="ltr" dominant-baseline="alphabetic">신뢰 구간</text></g><g stroke-linecap="round" transform="translate(1944.5718827670341 443.4152274432688) rotate(0 202.66335624629664 100.40421599578963)"><path d="M32 0 C149.74 0, 267.49 0, 373.33 0 M32 0 C111.57 0, 191.15 0, 373.33 0 M373.33 0 C394.66 0, 405.33 10.67, 405.33 32 M373.33 0 C394.66 0, 405.33 10.67, 405.33 32 M405.33 32 C405.33 62.12, 405.33 92.25, 405.33 168.81 M405.33 32 C405.33 64.01, 405.33 96.02, 405.33 168.81 M405.33 168.81 C405.33 190.14, 394.66 200.81, 373.33 200.81 M405.33 168.81 C405.33 190.14, 394.66 200.81, 373.33 200.81 M373.33 200.81 C255.3 200.81, 137.27 200.81, 32 200.81 M373.33 200.81 C252.17 200.81, 131.01 200.81, 32 200.81 M32 200.81 C10.67 200.81, 0 190.14, 0 168.81 M32 200.81 C10.67 200.81, 0 190.14, 0 168.81 M0 168.81 C0 121.32, 0 73.82, 0 32 M0 168.81 C0 118.81, 0 68.8, 0 32 M0 32 C0 10.67, 10.67 0, 32 0 M0 32 C0 10.67, 10.67 0, 32 0" stroke="#2f9e44" stroke-width="4" fill="none"></path></g><g transform="translate(2021.4692935787605 498.8194434390582) rotate(0 125.76594543457031 45)"><text x="125.76594543457031" y="31.536" font-family="Virgil, Segoe UI Emoji" font-size="36px" fill="#2f9e44" text-anchor="middle" style="white-space: pre;" direction="ltr" dominant-baseline="alphabetic">whoami service</text><text x="125.76594543457031" y="76.536" font-family="Virgil, Segoe UI Emoji" font-size="36px" fill="#2f9e44" text-anchor="middle" style="white-space: pre;" direction="ltr" dominant-baseline="alphabetic">(로깅 서버)</text></g></svg>